<svg xmlns="http://www.w3.org/2000/svg" width="840.147" height="116.99" viewBox="0 0 222.288 30.953"><defs><clipPath id="a"><path d="M1089.38 5330.443h1143.365v572.619H1089.38z" fill="#009e00" fill-opacity=".75" stroke-width="34.531" stroke-dashoffset="4.292"/></clipPath></defs><g style="line-height:125%;-inkscape-font-specification:'Open Sans, Normal';font-variant-ligatures:normal;font-variant-caps:normal;font-variant-numeric:normal;font-feature-settings:normal;text-align:start" aria-label="underpouch" font-weight="400" font-size="27.741" letter-spacing="0" word-spacing="0" font-family="Open Sans" stroke-width="32.789"><path fill="#67bf8c" d="M27.799 3.744h15.749V25.52h-15.75z"/><path fill="#67bf8c" d="M.027 3.744h43.52v15.504H.028z"/><path fill="#67bf8c" d="M.027 3.744H17.48V25.52H.027z"/><path d="M0 4.756V0h44.159v4.756zM1.278 3.48H42.88V1.278H1.278z" style="line-height:normal;font-variant-ligatures:normal;font-variant-position:normal;font-variant-caps:normal;font-variant-numeric:normal;font-variant-alternates:normal;font-feature-settings:normal;text-indent:0;text-align:start;text-decoration-line:none;text-decoration-style:solid;text-decoration-color:#000;text-transform:none;text-orientation:mixed;shape-padding:0;isolation:auto;mix-blend-mode:normal" font-size="medium" letter-spacing="normal" word-spacing="normal" overflow="visible" color="#000" font-family="sans-serif" white-space="normal" fill="#67bf8c"/><path transform="translate(-40.18 -195.478) scale(.0375)" d="M1124.64 4855.822l-106.866 282.274 379.582 354.935c37.9 35.818 87.757 83.148 87.639 83.365-.12.222-19.113 34.099-42.205 75.28-25.619 45.686-41.844 75.243-41.621 75.822.23.603 66.37 117.004 116.714 205.629l115.407-198.983h80.545l108.421 188.653c5.637-9.88 7.811-13.696 13.516-23.695 105.858-185.537 98.264-172.03 97.504-173.479-.382-.729-19.398-34.377-42.258-74.775-21.745-38.43-39.542-70.278-41.262-73.809l410.934-389.621-165.42-178.318-217.105 295.941a162451.89 162451.89 0 0 0-48.92 65.184l-72.834 97.082-88.952.037-88.95.037-42.92-56.791z" clip-path="url(#a)" fill="#80d4a4"/><path d="M.027 3.744v22.109h17.367l.743-1.275H1.303V5.018h41.594v19.56H27.052l.605 1.275h16.515V3.743z" style="line-height:normal;font-variant-ligatures:normal;font-variant-position:normal;font-variant-caps:normal;font-variant-numeric:normal;font-variant-alternates:normal;font-feature-settings:normal;text-indent:0;text-align:start;text-decoration-line:none;text-decoration-style:solid;text-decoration-color:#000;text-transform:none;text-orientation:mixed;shape-padding:0;isolation:auto;mix-blend-mode:normal" font-size="medium" letter-spacing="normal" word-spacing="normal" overflow="visible" color="#000" font-family="sans-serif" white-space="normal" fill="#67bf8c"/><g style="line-height:125%;-inkscape-font-specification:'Open Sans, Light';font-variant-ligatures:normal;font-variant-caps:normal;font-variant-numeric:normal;font-feature-settings:normal;text-align:start" aria-label="UNDER" font-weight="300" font-size="28.777" stroke-width="1.439"><path style="-inkscape-font-specification:'Open Sans, Light';font-variant-ligatures:normal;font-variant-caps:normal;font-variant-numeric:normal;font-feature-settings:normal;text-align:start" d="M67.42 3.826V17.12q0 3.54-2.051 5.536-2.052 1.995-5.719 1.995-3.569 0-5.578-1.995-1.996-2.01-1.996-5.593V3.826h1.448V17.12q0 2.964 1.644 4.622 1.644 1.644 4.65 1.644 2.937 0 4.553-1.615 1.616-1.63 1.616-4.51V3.825zM87.935 24.369h-1.447L74.319 6.131h-.112q.169 3.26.169 4.917V24.37h-1.377V3.826h1.433l12.154 18.21h.084q-.126-2.529-.126-4.805V3.826h1.391zM109.335 13.9q0 5.172-2.712 7.827-2.712 2.642-7.967 2.642h-4.918V3.826h5.55q4.918 0 7.476 2.572 2.57 2.57 2.57 7.503zm-1.56.057q0-4.412-2.248-6.632-2.234-2.234-6.576-2.234h-3.78v18.013h3.4q9.204 0 9.204-9.147zM125.311 24.369h-11.227V3.826h11.227v1.321h-9.794v7.77h9.246v1.321h-9.246v8.81h9.794zM131.423 15.418v8.951h-1.433V3.826h4.89q3.822 0 5.648 1.42 1.827 1.404 1.827 4.243 0 2.065-1.096 3.484-1.082 1.42-3.302 2.038l5.578 9.358h-1.714l-5.297-8.95zm0-1.236h3.92q2.6 0 4.033-1.152 1.434-1.167 1.434-3.429 0-2.346-1.406-3.414-1.405-1.068-4.58-1.068h-3.4z"/></g><g style="line-height:125%;-inkscape-font-specification:'Open Sans, Light';font-variant-ligatures:normal;font-variant-caps:normal;font-variant-numeric:normal;font-feature-settings:normal;text-align:start" aria-label="pouch" font-weight="300" font-size="27.668" fill="#555" stroke-width="1.383"><path style="-inkscape-font-specification:'Open Sans, Light';font-variant-ligatures:normal;font-variant-caps:normal;font-variant-numeric:normal;font-feature-settings:normal;text-align:start" d="M154.862 24.577q-3.39 0-4.944-2.54h-.095l.04 1.135q.055 1 .055 2.189v5.593h-1.338V9.622h1.135l.257 2.094h.08q1.514-2.378 4.837-2.378 2.972 0 4.526 1.96 1.567 1.945 1.567 5.673 0 3.62-1.648 5.62-1.635 1.986-4.472 1.986zm-.027-1.189q2.256 0 3.486-1.675 1.243-1.675 1.243-4.688 0-6.47-4.675-6.47-2.567 0-3.769 1.418-1.202 1.405-1.202 4.593v.432q0 3.445 1.148 4.918 1.162 1.472 3.77 1.472zM177.207 16.944q0 3.594-1.743 5.62-1.742 2.013-4.81 2.013-1.93 0-3.403-.932t-2.257-2.675q-.783-1.743-.783-4.026 0-3.593 1.743-5.593 1.742-2.013 4.782-2.013 3.026 0 4.742 2.04 1.73 2.027 1.73 5.566zm-11.591 0q0 3.026 1.324 4.729 1.337 1.688 3.769 1.688 2.432 0 3.756-1.688 1.337-1.703 1.337-4.729 0-3.04-1.35-4.715-1.338-1.675-3.77-1.675t-3.756 1.675q-1.31 1.662-1.31 4.715zM182.435 9.622v9.51q0 2.216.932 3.23.933 1 2.891 1 2.621 0 3.85-1.325 1.244-1.324 1.244-4.31V9.623h1.324v14.685h-1.135l-.243-2.027h-.082q-1.432 2.297-5.093 2.297-5.012 0-5.012-5.363V9.622zM203.456 24.577q-3.148 0-4.93-1.986-1.784-1.986-1.784-5.539 0-3.647 1.85-5.674 1.851-2.04 5.067-2.04 1.905 0 3.647.662l-.364 1.19q-1.905-.636-3.31-.636-2.702 0-4.094 1.675-1.391 1.662-1.391 4.796 0 2.972 1.391 4.661 1.392 1.675 3.891 1.675 2 0 3.715-.716v1.243q-1.405.69-3.688.69zM220.964 24.307v-9.524q0-2.216-.932-3.216-.932-1.013-2.89-1.013-2.635 0-3.864 1.338-1.216 1.324-1.216 4.31v8.105h-1.338V3.286h1.338v6.687l-.068 1.878h.095q.824-1.324 2.08-1.918 1.257-.595 3.121-.595 4.999 0 4.999 5.364v9.605z"/></g></g></svg>